# xmcd
#
# Track frame offsets:
#	150
#	17191
#	34618
#	49061
#	68073
#	85979
#	104987
#	122028
#	139455
#	153898
#	172910
#	190816
#
# Disc length: 2795
#
# Revision: 1
# Processed by: cddbd v1.5.2PL0 Copyright (c) Steve Scherf et al.
# Submitted via: kJams Lite 1.0b99
#
DISCID=a30ae90c
DTITLE=Lady Antebellum - ASK 602
DYEAR=2013
DGENRE=Country
TTITLE0=Lady Antebellum - American Honey
TTITLE1=Lady Antebellum - I Run To You
TTITLE2=Lady Antebellum - Lookin' For A Good Time
TTITLE3=Lady Antebellum - Love Don't  Live Here
TTITLE4=Lady Antebellum - Need You Now
TTITLE5=Lady Antebellum - Our Kind Of Love
TTITLE6=Lady Antebellum - American Honey w§voice
TTITLE7=Lady Antebellum - I Run To You w§voice
TTITLE8=Lady Antebellum - Lookin' For A Good Time w§voice
TTITLE9=Lady Antebellum - Love Don't  Live Here w§voice
TTITLE10=Lady Antebellum - Need You Now w§voice
TTITLE11=Lady Antebellum - Our Kind Of Love w§voice
EXTD=
EXTT0=
EXTT1=
EXTT2=
EXTT3=
EXTT4=
EXTT5=
EXTT6=
EXTT7=
EXTT8=
EXTT9=
EXTT10=
EXTT11=
PLAYORDER=
